<svg viewBox="0 0 13 13" fill="none" xmlns="http://www.w3.org/2000/svg">
<g clip-path="url(#clip0_1051_672)">
<path d="M11.6862 0.258338C11.3823 0.1324 11.0329 0.202275 10.8006 0.43465C9.77356 1.46084 8.10225 1.46165 7.07444 0.43465C5.41287 -1.22529 2.71131 -1.22529 1.05056 0.43465C0.897813 0.586588 0.8125 0.793776 0.8125 1.00909V11.5716C0.8125 12.0201 1.17569 12.3841 1.625 12.3841C2.07431 12.3841 2.4375 12.0201 2.4375 11.5716V7.87228C3.47019 7.06221 4.97331 7.13209 5.92556 8.08353C7.58713 9.74346 10.2895 9.74346 11.9494 8.08353C12.1022 7.93078 12.1875 7.7244 12.1875 7.50909V1.00909C12.1875 0.680026 11.9892 0.384275 11.6862 0.258338Z" fill="black"/>
</g>
<defs>
<clipPath id="clip0_1051_672">
<rect width="13" height="13" fill="white"/>
</clipPath>
</defs>
</svg>
