<svg viewBox="0 0 16 16" fill="none" xmlns="http://www.w3.org/2000/svg">
<g clip-path="url(#clip0_1051_659)">
<path d="M14.6663 6.53324C14.6663 6.66658 14.597 6.79998 14.4583 6.93331L11.5497 9.73328L12.2383 13.7999C12.2437 13.7999 12.2463 13.8666 12.2463 13.9333C12.2463 14.0666 12.217 14.1332 12.1583 14.1999C12.105 14.2666 12.025 14.3333 11.9177 14.3333C11.8163 14.3333 11.7097 14.3333 11.5977 14.2666L7.99967 12.3333L4.40194 14.2666C4.28441 14.3333 4.17754 14.3333 4.08141 14.3333C3.96921 14.3333 3.88374 14.2666 3.82501 14.1999C3.77154 14.1332 3.74487 14.0666 3.74487 13.9333C3.74487 13.9333 3.75021 13.8666 3.76087 13.7999L4.45001 9.73328L1.53334 6.93331C1.39981 6.79998 1.33301 6.66658 1.33301 6.53324C1.33301 6.33324 1.48261 6.19991 1.78174 6.19991L5.80414 5.59998L7.60701 1.93331C7.70834 1.73331 7.83967 1.59998 7.99967 1.59998C8.15967 1.59998 8.29101 1.73331 8.39234 1.93331L10.195 5.59998L14.2177 6.19991C14.517 6.19991 14.6663 6.33324 14.6663 6.53324Z" fill="#020E10"/>
<path d="M14.6663 5.86662C14.6663 5.99995 14.597 6.13335 14.4583 6.26668L11.5497 9.06665L12.2383 13.1333C12.2437 13.1333 12.2463 13.2 12.2463 13.2667C12.2463 13.4 12.217 13.4666 12.1583 13.5333C12.105 13.6 12.025 13.6667 11.9177 13.6667C11.8163 13.6667 11.7097 13.6667 11.5977 13.6L7.99967 11.6667L4.40194 13.6C4.28441 13.6667 4.17754 13.6667 4.08141 13.6667C3.96921 13.6667 3.88374 13.6 3.82501 13.5333C3.77154 13.4666 3.74487 13.4 3.74487 13.2667C3.74487 13.2667 3.75021 13.2 3.76087 13.1333L4.45001 9.06665L1.53334 6.26668C1.39981 6.13335 1.33301 5.99995 1.33301 5.86662C1.33301 5.66662 1.48261 5.53328 1.78174 5.53328L5.80414 4.93335L7.60701 1.26668C7.70834 1.06668 7.83967 0.93335 7.99967 0.93335C8.15967 0.93335 8.29101 1.06668 8.39234 1.26668L10.195 4.93335L14.2177 5.53328C14.517 5.53328 14.6663 5.66662 14.6663 5.86662Z" fill="#020E10"/>
</g>
<defs>
<clipPath id="clip0_1051_659">
<rect width="16" height="16" fill="white"/>
</clipPath>
</defs>
</svg>
